<svg width="21" height="14" viewBox="0 0 21 14" fill="none" xmlns="http://www.w3.org/2000/svg">
<g filter="url(#filter0_df_1090_2883)">
<g filter="url(#filter1_d_1090_2883)">
<path d="M12.5781 12.3383C12.4815 12.346 12.3838 12.3499 12.2853 12.35H5.40908C4.93576 12.3518 4.46676 12.2601 4.02897 12.0802C3.59118 11.9003 3.19321 11.6357 2.8579 11.3016C2.5226 10.9676 2.25654 10.5706 2.07501 10.1335C1.89347 9.69635 1.80002 9.22769 1.80002 8.75438C1.80002 8.28106 1.89347 7.8124 2.07501 7.37529C2.25654 6.93817 2.5226 6.54119 2.8579 6.20713C3.19321 5.87307 3.59118 5.6085 4.02897 5.4286C4.46676 5.24869 4.93576 5.15699 5.40908 5.15875H7.97288C8.80408 3.33 10.7184 2.05 12.9471 2.05C15.9384 2.05 18.3634 4.35575 18.3634 7.2C18.3634 10.0443 15.9384 12.35 12.9471 12.35C12.8231 12.35 12.7001 12.3461 12.5781 12.3383Z" fill="url(#paint0_linear_1090_2883)"/>
<path d="M12.9471 12.3C13.3114 12.3 13.6754 12.2651 14.0291 12.1963C14.3738 12.1292 14.7128 12.0292 15.0367 11.8989C15.3547 11.771 15.6615 11.6127 15.9484 11.4284C16.2325 11.2459 16.4997 11.0362 16.7426 10.8054C16.9853 10.5745 17.2057 10.3205 17.3976 10.0504C17.5913 9.77783 17.7577 9.48641 17.8921 9.18428C18.029 8.87662 18.1341 8.55467 18.2045 8.22737C18.2768 7.89154 18.3134 7.54587 18.3134 7.19998C18.3134 6.8541 18.2768 6.50844 18.2045 6.17261C18.1341 5.84532 18.029 5.52337 17.8921 5.21571C17.7577 4.91358 17.5913 4.62217 17.3976 4.34955C17.2057 4.07947 16.9853 3.82548 16.7426 3.59464C16.4997 3.36376 16.2325 3.15415 15.9484 2.97162C15.6615 2.78731 15.3547 2.62901 15.0367 2.50111C14.7128 2.37083 14.3738 2.27077 14.0291 2.20371C13.6754 2.1349 13.3114 2.1 12.9471 2.1C11.8785 2.1 10.8466 2.39762 9.96275 2.96068C9.53673 3.23209 9.1539 3.5597 8.8249 3.93439C8.49382 4.31146 8.22246 4.73035 8.01837 5.17943L8.00505 5.20874H7.97285H5.40906C4.93039 5.20874 4.46605 5.30248 4.02896 5.48735C3.81888 5.57621 3.61625 5.68619 3.42671 5.81425C3.23895 5.9411 3.06239 6.08677 2.90193 6.24723C2.74147 6.40769 2.59579 6.58425 2.46894 6.77201C2.34089 6.96156 2.2309 7.16419 2.14205 7.37427C1.95717 7.81136 1.86343 8.27569 1.86343 8.75437C1.86343 9.23305 1.95717 9.69738 2.14205 10.1345C2.2309 10.3446 2.34089 10.5472 2.46894 10.7367C2.59579 10.9245 2.74147 11.1011 2.90193 11.2615C3.06239 11.422 3.23895 11.5676 3.42671 11.6945C3.61625 11.8226 3.81888 11.9325 4.02896 12.0214C4.46605 12.2063 4.93039 12.3 5.40906 12.3H12.2853C12.3814 12.3 12.4786 12.2961 12.5741 12.2884L12.5777 12.2881L12.5813 12.2884C12.7023 12.2961 12.8254 12.3 12.9471 12.3ZM12.9471 12.35C12.8231 12.35 12.7 12.346 12.5782 12.3382C12.4816 12.346 12.3838 12.35 12.2853 12.35H5.40906C3.42326 12.35 1.81343 10.7402 1.81343 8.75437C1.81343 6.76857 3.42326 5.15874 5.40906 5.15874H7.97285C8.80407 3.32977 10.7183 2.05 12.9471 2.05C15.9384 2.05 18.3634 4.35576 18.3634 7.19998C18.3634 10.0443 15.9384 12.35 12.9471 12.35Z" fill="white" fill-opacity="0.5"/>
</g>
</g>
<defs>
<filter id="filter0_df_1090_2883" x="0.800018" y="0.650003" width="19.5634" height="13.3" filterUnits="userSpaceOnUse" color-interpolation-filters="sRGB">
<feFlood flood-opacity="0" result="BackgroundImageFix"/>
<feColorMatrix in="SourceAlpha" type="matrix" values="0 0 0 0 0 0 0 0 0 0 0 0 0 0 0 0 0 0 127 0" result="hardAlpha"/>
<feOffset dx="0.5" dy="0.1"/>
<feGaussianBlur stdDeviation="0.75"/>
<feColorMatrix type="matrix" values="0 0 0 0 0 0 0 0 0 0 0 0 0 0 0 0 0 0 0.25 0"/>
<feBlend mode="normal" in2="BackgroundImageFix" result="effect1_dropShadow_1090_2883"/>
<feBlend mode="normal" in="SourceGraphic" in2="effect1_dropShadow_1090_2883" result="shape"/>
<feGaussianBlur stdDeviation="0.1" result="effect2_foregroundBlur_1090_2883"/>
</filter>
<filter id="filter1_d_1090_2883" x="0.800018" y="0.650003" width="19.5634" height="13.3" filterUnits="userSpaceOnUse" color-interpolation-filters="sRGB">
<feFlood flood-opacity="0" result="BackgroundImageFix"/>
<feColorMatrix in="SourceAlpha" type="matrix" values="0 0 0 0 0 0 0 0 0 0 0 0 0 0 0 0 0 0 127 0" result="hardAlpha"/>
<feOffset dx="0.5" dy="0.1"/>
<feGaussianBlur stdDeviation="0.75"/>
<feColorMatrix type="matrix" values="0 0 0 0 0.258824 0 0 0 0 0.627451 0 0 0 0 0.941176 0 0 0 0.596 0"/>
<feBlend mode="normal" in2="BackgroundImageFix" result="effect1_dropShadow_1090_2883"/>
<feBlend mode="normal" in="SourceGraphic" in2="effect1_dropShadow_1090_2883" result="shape"/>
</filter>
<linearGradient id="paint0_linear_1090_2883" x1="8.5082" y1="3.34781" x2="11.8103" y2="12.9084" gradientUnits="userSpaceOnUse">
<stop stop-color="white" stop-opacity="0.596"/>
<stop offset="1" stop-color="#F7F7F7" stop-opacity="0.204"/>
</linearGradient>
</defs>
</svg>
