<svg width="202.000000" height="174.000000" viewBox="0 0 202 174" fill="none" xmlns="http://www.w3.org/2000/svg" xmlns:xlink="http://www.w3.org/1999/xlink">
	<desc>
			Created with Pixso.
	</desc>
	<defs/>
	<path id="Vector" d="M101 0C136.56 0 156.73 22.82 159.66 50.37L160.56 50.37C183.44 50.37 202 68.31 202 90.44C202 112.56 183.44 130.5 160.56 130.5L150.41 130.49L150.23 130.98L128.83 170.19C127.97 171.78 126.55 172.99 124.84 173.58C123.14 174.18 121.27 174.1 119.62 173.38C117.96 172.66 116.64 171.35 115.9 169.69C115.17 168.04 115.07 166.17 115.64 164.45L116.16 163.24L134.04 130.5L107.3 130.5L107.1 130.99L85.7 170.2C84.84 171.8 83.42 173.01 81.71 173.6C80.01 174.19 78.15 174.12 76.49 173.4C74.84 172.68 73.51 171.36 72.77 169.71C72.04 168.05 71.94 166.18 72.51 164.46L73.03 163.26L90.91 130.5L63.94 130.5L42.42 170.19C41.61 171.68 40.3 172.83 38.74 173.45C37.17 174.08 35.43 174.13 33.83 173.6L32.63 173.07C31.15 172.26 30 170.96 29.38 169.38C28.75 167.8 28.7 166.06 29.23 164.45L29.75 163.24L47.51 130.5L41.43 130.5C18.55 130.5 0 112.56 0 90.44C0 69.12 17.19 51.7 38.91 50.44L42.33 50.37C45.29 22.63 65.43 0 101 0ZM101 14.5C77.19 14.5 56.45 32.91 56.45 58.36C56.45 62.39 52.79 65.55 48.59 65.55L40.65 65.55C26.17 65.55 14.42 76.85 14.42 90.78C14.42 104.69 26.17 116 40.65 116L161.34 116C175.82 116 187.57 104.7 187.57 90.77C187.57 76.85 175.82 65.55 161.34 65.55L153.4 65.55C149.22 65.55 145.54 62.39 145.54 58.36C145.54 32.59 124.8 14.5 101 14.5Z" fill="#FFFFFF" fill-opacity="1.000000" fill-rule="nonzero"/>
</svg>
