<svg width="36.000000" height="35.870361" viewBox="0 0 36 35.8704" fill="none" xmlns="http://www.w3.org/2000/svg" xmlns:xlink="http://www.w3.org/1999/xlink">
	<desc>
			Created with Pixso.
	</desc>
	<defs/>
	<path id="Vector" d="M4.07 3.94C2.78 5.21 1.76 6.72 1.06 8.38C0.36 10.04 0 11.83 9.15e-5 13.63C-0.01 15.44 0.34 17.23 1.03 18.9C1.72 20.56 2.73 22.08 4 23.36C5.28 24.63 6.8 25.64 8.46 26.33C10.13 27.02 11.92 27.37 13.73 27.36C15.53 27.36 17.32 26.99 18.98 26.3C20.64 25.6 22.15 24.58 23.42 23.29C25.96 20.72 27.38 17.25 27.36 13.63C27.35 10.02 25.91 6.56 23.36 4C20.8 1.45 17.34 0.01 13.73 9.15e-5C10.11 -0.02 6.64 1.4 4.07 3.94ZM19.9 19.77C19.09 20.58 18.13 21.22 17.08 21.66C16.02 22.1 14.89 22.32 13.74 22.32C12.6 22.32 11.47 22.1 10.41 21.66C9.35 21.22 8.39 20.58 7.59 19.77C6.78 18.96 6.14 18 5.7 16.95C5.26 15.89 5.04 14.76 5.04 13.61C5.04 12.47 5.26 11.34 5.7 10.28C6.14 9.23 6.78 8.27 7.59 7.46C9.22 5.82 11.43 4.91 13.74 4.91C16.05 4.91 18.27 5.82 19.9 7.46C21.54 9.09 22.45 11.3 22.45 13.61C22.45 15.92 21.54 18.14 19.9 19.77Z" fill="#FFFFFF" fill-opacity="1.000000" fill-rule="evenodd"/>
	<path id="Vector" d="M20.78 25.93C20.43 25.58 20.16 25.17 19.97 24.72C19.78 24.27 19.69 23.78 19.69 23.29C19.69 22.8 19.78 22.32 19.97 21.86C20.16 21.41 20.43 21 20.78 20.65C21.13 20.3 21.54 20.03 21.99 19.84C22.44 19.65 22.93 19.56 23.42 19.56C23.91 19.56 24.4 19.65 24.85 19.84C25.3 20.03 25.71 20.3 26.06 20.65L34.86 29.45C35.21 29.79 35.5 30.2 35.69 30.66C35.89 31.12 35.99 31.61 35.99 32.1C36 32.6 35.9 33.09 35.72 33.55C35.53 34.01 35.25 34.42 34.9 34.77C34.55 35.12 34.13 35.4 33.68 35.59C33.22 35.78 32.73 35.87 32.23 35.87C31.73 35.86 31.25 35.76 30.79 35.56C30.33 35.37 29.92 35.08 29.58 34.73L20.78 25.93Z" fill="#FFFFFF" fill-opacity="1.000000" fill-rule="nonzero"/>
</svg>
