<svg width="20" height="16" viewBox="0 0 20 16" fill="none" xmlns="http://www.w3.org/2000/svg">
<g filter="url(#filter0_f_1090_2872)">
<path d="M9.03407 11.3141C9.03407 11.3141 11.9132 11.4697 13.19 11.0991C14.4668 10.7285 14.465 8.80411 13.19 8.32951C11.915 7.85491 11.4791 9.55076 11.4791 9.55076" stroke="#D0D0D0" stroke-width="0.8" stroke-linecap="round"/>
<path d="M4.08157 13.3929C4.08157 13.3929 8.40927 13.0019 10.3172 13.3929C12.2251 13.7839 11.6176 14.9056 10.7134 14.9569C9.80917 15.0081 8.97482 14.414 8.97482 14.414" stroke="#D0D0D0" stroke-width="0.8" stroke-linecap="round"/>
<path d="M13.2928 13.3898H15.0134" stroke="#D0D0D0" stroke-width="0.8" stroke-linecap="round"/>
<path d="M5.19283 11.3398H6.91343" stroke="#D0D0D0" stroke-width="0.8" stroke-linecap="round"/>
</g>
<g filter="url(#filter1_df_1090_2872)">
<g filter="url(#filter2_d_1090_2872)">
<path d="M12.0281 12.3383C11.9315 12.346 11.8338 12.3499 11.7353 12.35H4.85907C4.38576 12.3518 3.91676 12.2601 3.47897 12.0802C3.04117 11.9003 2.64321 11.6357 2.3079 11.3016C1.97259 10.9676 1.70654 10.5706 1.525 10.1335C1.34346 9.69635 1.25002 9.22769 1.25002 8.75438C1.25002 8.28106 1.34346 7.8124 1.525 7.37529C1.70654 6.93817 1.97259 6.54119 2.3079 6.20713C2.64321 5.87307 3.04117 5.6085 3.47897 5.4286C3.91676 5.24869 4.38576 5.15699 4.85907 5.15875H7.42287C8.25407 3.33 10.1684 2.05 12.3971 2.05C15.3884 2.05 17.8134 4.35575 17.8134 7.2C17.8134 10.0443 15.3884 12.35 12.3971 12.35C12.2731 12.35 12.1501 12.3461 12.0281 12.3383Z" fill="url(#paint0_linear_1090_2872)"/>
<path d="M12.3971 12.3C12.7614 12.3 13.1254 12.2651 13.4791 12.1963C13.8238 12.1292 14.1628 12.0292 14.4867 11.8989C14.8047 11.771 15.1115 11.6127 15.3984 11.4284C15.6825 11.2459 15.9497 11.0362 16.1926 10.8054C16.4353 10.5745 16.6557 10.3205 16.8476 10.0504C17.0413 9.77783 17.2077 9.48641 17.3421 9.18428C17.479 8.87662 17.5841 8.55467 17.6545 8.22737C17.7268 7.89154 17.7634 7.54587 17.7634 7.19998C17.7634 6.8541 17.7268 6.50844 17.6545 6.17261C17.5841 5.84532 17.479 5.52337 17.3421 5.21571C17.2077 4.91358 17.0413 4.62217 16.8476 4.34955C16.6557 4.07947 16.4353 3.82548 16.1926 3.59464C15.9497 3.36376 15.6825 3.15415 15.3984 2.97162C15.1115 2.78731 14.8047 2.62901 14.4867 2.50111C14.1628 2.37083 13.8238 2.27077 13.4791 2.20371C13.1254 2.1349 12.7614 2.1 12.3971 2.1C11.3285 2.1 10.2966 2.39762 9.41275 2.96068C8.98672 3.23209 8.60389 3.5597 8.27489 3.93439C7.94382 4.31146 7.67246 4.73035 7.46836 5.17943L7.45504 5.20874H7.42284H4.85906C4.38038 5.20874 3.91605 5.30248 3.47896 5.48735C3.26888 5.57621 3.06625 5.68619 2.8767 5.81425C2.68894 5.9411 2.51238 6.08677 2.35192 6.24723C2.19146 6.40769 2.04579 6.58425 1.91894 6.77201C1.79088 6.96156 1.6809 7.16419 1.59204 7.37427C1.40717 7.81136 1.31343 8.27569 1.31343 8.75437C1.31343 9.23305 1.40717 9.69738 1.59204 10.1345C1.6809 10.3446 1.79088 10.5472 1.91894 10.7367C2.04579 10.9245 2.19146 11.1011 2.35192 11.2615C2.51238 11.422 2.68894 11.5676 2.8767 11.6945C3.06625 11.8226 3.26888 11.9325 3.47896 12.0214C3.91605 12.2063 4.38038 12.3 4.85906 12.3H11.7353C11.8314 12.3 11.9286 12.2961 12.0241 12.2884L12.0277 12.2881L12.0313 12.2884C12.1523 12.2961 12.2754 12.3 12.3971 12.3ZM12.3971 12.35C12.2731 12.35 12.15 12.346 12.0281 12.3382C11.9316 12.346 11.8338 12.35 11.7353 12.35H4.85906C2.87326 12.35 1.26343 10.7402 1.26343 8.75437C1.26343 6.76857 2.87326 5.15874 4.85906 5.15874H7.42284C8.25407 3.32977 10.1683 2.05 12.3971 2.05C15.3884 2.05 17.8134 4.35576 17.8134 7.19998C17.8134 10.0443 15.3884 12.35 12.3971 12.35Z" fill="white" fill-opacity="0.5"/>
</g>
</g>
<defs>
<filter id="filter0_f_1090_2872" x="3.48155" y="7.6457" width="12.1319" height="7.91428" filterUnits="userSpaceOnUse" color-interpolation-filters="sRGB">
<feFlood flood-opacity="0" result="BackgroundImageFix"/>
<feBlend mode="normal" in="SourceGraphic" in2="BackgroundImageFix" result="shape"/>
<feGaussianBlur stdDeviation="0.1" result="effect1_foregroundBlur_1090_2872"/>
</filter>
<filter id="filter1_df_1090_2872" x="0.250015" y="0.650003" width="19.5634" height="13.3" filterUnits="userSpaceOnUse" color-interpolation-filters="sRGB">
<feFlood flood-opacity="0" result="BackgroundImageFix"/>
<feColorMatrix in="SourceAlpha" type="matrix" values="0 0 0 0 0 0 0 0 0 0 0 0 0 0 0 0 0 0 127 0" result="hardAlpha"/>
<feOffset dx="0.5" dy="0.1"/>
<feGaussianBlur stdDeviation="0.75"/>
<feColorMatrix type="matrix" values="0 0 0 0 0.258824 0 0 0 0 0.627451 0 0 0 0 0.941176 0 0 0 0.596 0"/>
<feBlend mode="normal" in2="BackgroundImageFix" result="effect1_dropShadow_1090_2872"/>
<feBlend mode="normal" in="SourceGraphic" in2="effect1_dropShadow_1090_2872" result="shape"/>
<feGaussianBlur stdDeviation="0.1" result="effect2_foregroundBlur_1090_2872"/>
</filter>
<filter id="filter2_d_1090_2872" x="0.250015" y="0.650003" width="19.5634" height="13.3" filterUnits="userSpaceOnUse" color-interpolation-filters="sRGB">
<feFlood flood-opacity="0" result="BackgroundImageFix"/>
<feColorMatrix in="SourceAlpha" type="matrix" values="0 0 0 0 0 0 0 0 0 0 0 0 0 0 0 0 0 0 127 0" result="hardAlpha"/>
<feOffset dx="0.5" dy="0.1"/>
<feGaussianBlur stdDeviation="0.75"/>
<feColorMatrix type="matrix" values="0 0 0 0 0.501961 0 0 0 0 0.501961 0 0 0 0 0.501961 0 0 0 0.302 0"/>
<feBlend mode="normal" in2="BackgroundImageFix" result="effect1_dropShadow_1090_2872"/>
<feBlend mode="normal" in="SourceGraphic" in2="effect1_dropShadow_1090_2872" result="shape"/>
</filter>
<linearGradient id="paint0_linear_1090_2872" x1="7.9582" y1="3.34781" x2="11.2603" y2="12.9084" gradientUnits="userSpaceOnUse">
<stop stop-color="white" stop-opacity="0.596"/>
<stop offset="1" stop-color="#F7F7F7" stop-opacity="0.204"/>
</linearGradient>
</defs>
</svg>
