<svg width="21" height="16" viewBox="0 0 21 16" fill="none" xmlns="http://www.w3.org/2000/svg">
<g filter="url(#filter0_f_1090_2470)">
<path d="M6.25002 10.3C8.48678 10.3 10.3 8.48675 10.3 6.25C10.3 4.01324 8.48678 2.2 6.25002 2.2C4.01327 2.2 2.20002 4.01324 2.20002 6.25C2.20002 8.48675 4.01327 10.3 6.25002 10.3Z" fill="#FA9E42"/>
</g>
<g filter="url(#filter1_f_1090_2470)">
<path d="M6.25002 11.25C9.01145 11.25 11.25 9.01142 11.25 6.25C11.25 3.48858 9.01145 1.25 6.25002 1.25C3.4886 1.25 1.25002 3.48858 1.25002 6.25C1.25002 9.01142 3.4886 11.25 6.25002 11.25Z" stroke="#FA9E42" stroke-width="0.5" stroke-linecap="round" stroke-dasharray="0.05 3.3"/>
</g>
<g filter="url(#filter2_f_1090_2470)">
<path d="M5.82002 5.44716C7.23426 4.69599 8.03426 3.43476 7.60687 2.63011C7.17948 1.82546 5.68656 1.78209 4.27232 2.53326C2.85808 3.28442 2.05808 4.54566 2.48547 5.35031C2.91286 6.15496 4.40578 6.19832 5.82002 5.44716Z" fill="#F8E36F"/>
</g>
<g filter="url(#filter3_df_1090_2470)">
<g filter="url(#filter4_d_1090_2470)">
<path d="M12.6147 13.9382C12.5181 13.946 12.4204 13.9499 12.3219 13.95H5.44568C4.97237 13.9518 4.50336 13.8601 4.06557 13.6802C3.62778 13.5002 3.22982 13.2357 2.89451 12.9016C2.5592 12.5676 2.29314 12.1706 2.11161 11.7335C1.93007 11.2963 1.83662 10.8277 1.83662 10.3544C1.83662 9.88105 1.93007 9.41239 2.11161 8.97528C2.29314 8.53816 2.5592 8.14118 2.89451 7.80712C3.22982 7.47306 3.62778 7.20849 4.06557 7.02859C4.50336 6.84868 4.97237 6.75698 5.44568 6.75874H8.00948C8.84068 4.92999 10.755 3.64999 12.9837 3.64999C15.975 3.64999 18.4 5.95574 18.4 8.79999C18.4 11.6442 15.975 13.95 12.9837 13.95C12.8597 13.95 12.7367 13.9461 12.6147 13.9382Z" fill="url(#paint0_linear_1090_2470)"/>
<path d="M12.9837 13.9C13.3479 13.9 13.712 13.8651 14.0657 13.7963C14.4103 13.7292 14.7494 13.6292 15.0733 13.4989C15.3913 13.371 15.6981 13.2127 15.985 13.0284C16.2691 12.8458 16.5363 12.6362 16.7792 12.4054C17.0219 12.1745 17.2423 11.9205 17.4342 11.6504C17.6279 11.3778 17.7943 11.0864 17.9287 10.7843C18.0656 10.4766 18.1707 10.1547 18.2411 9.82736C18.3134 9.49153 18.35 9.14586 18.35 8.79997C18.35 8.45409 18.3134 8.10843 18.2411 7.7726C18.1707 7.44531 18.0656 7.12336 17.9287 6.8157C17.7943 6.51358 17.6279 6.22216 17.4342 5.94954C17.2423 5.67946 17.0219 5.42547 16.7792 5.19463C16.5363 4.96375 16.2691 4.75414 15.985 4.57161C15.6981 4.3873 15.3913 4.229 15.0733 4.1011C14.7494 3.97082 14.4103 3.87076 14.0657 3.8037C13.712 3.73489 13.3479 3.69999 12.9837 3.69999C11.9151 3.69999 10.8832 3.99761 9.99934 4.56067C9.57332 4.83208 9.19049 5.15969 8.86149 5.53439C8.53041 5.91145 8.25906 6.33034 8.05496 6.77942L8.04164 6.80873H8.00944H5.44565C4.96698 6.80873 4.50264 6.90247 4.06555 7.08734C3.85547 7.1762 3.65284 7.28619 3.4633 7.41424C3.27554 7.54109 3.09898 7.68676 2.93852 7.84722C2.77806 8.00769 2.63238 8.18425 2.50553 8.372C2.37748 8.56155 2.26749 8.76418 2.17864 8.97426C1.99376 9.41135 1.90002 9.87569 1.90002 10.3544C1.90002 10.833 1.99376 11.2974 2.17864 11.7345C2.26749 11.9445 2.37748 12.1472 2.50553 12.3367C2.63238 12.5245 2.77806 12.701 2.93852 12.8615C3.09898 13.022 3.27554 13.1676 3.4633 13.2945C3.65284 13.4225 3.85547 13.5325 4.06555 13.6214C4.50264 13.8063 4.96698 13.9 5.44565 13.9H12.3219C12.418 13.9 12.5152 13.8961 12.6107 13.8884L12.6143 13.8881L12.6179 13.8883C12.7389 13.8961 12.8619 13.9 12.9837 13.9ZM12.9837 13.95C12.8597 13.95 12.7366 13.946 12.6147 13.9382C12.5182 13.946 12.4204 13.95 12.3219 13.95H5.44565C3.45985 13.95 1.85002 12.3402 1.85002 10.3544C1.85002 8.36856 3.45985 6.75873 5.44565 6.75873H8.00944C8.84067 4.92976 10.7549 3.64999 12.9837 3.64999C15.975 3.64999 18.4 5.95575 18.4 8.79997C18.4 11.6442 15.975 13.95 12.9837 13.95Z" fill="white" fill-opacity="0.49"/>
</g>
</g>
<defs>
<filter id="filter0_f_1090_2470" x="2.00002" y="2" width="8.5" height="8.49999" filterUnits="userSpaceOnUse" color-interpolation-filters="sRGB">
<feFlood flood-opacity="0" result="BackgroundImageFix"/>
<feBlend mode="normal" in="SourceGraphic" in2="BackgroundImageFix" result="shape"/>
<feGaussianBlur stdDeviation="0.1" result="effect1_foregroundBlur_1090_2470"/>
</filter>
<filter id="filter1_f_1090_2470" x="0.900023" y="0.9" width="10.7" height="10.7" filterUnits="userSpaceOnUse" color-interpolation-filters="sRGB">
<feFlood flood-opacity="0" result="BackgroundImageFix"/>
<feBlend mode="normal" in="SourceGraphic" in2="BackgroundImageFix" result="shape"/>
<feGaussianBlur stdDeviation="0.05" result="effect1_foregroundBlur_1090_2470"/>
</filter>
<filter id="filter2_f_1090_2470" x="0.870388" y="0.49707" width="8.35156" height="6.98628" filterUnits="userSpaceOnUse" color-interpolation-filters="sRGB">
<feFlood flood-opacity="0" result="BackgroundImageFix"/>
<feBlend mode="normal" in="SourceGraphic" in2="BackgroundImageFix" result="shape"/>
<feGaussianBlur stdDeviation="0.75" result="effect1_foregroundBlur_1090_2470"/>
</filter>
<filter id="filter3_df_1090_2470" x="0.83662" y="2.24999" width="19.5634" height="13.3" filterUnits="userSpaceOnUse" color-interpolation-filters="sRGB">
<feFlood flood-opacity="0" result="BackgroundImageFix"/>
<feColorMatrix in="SourceAlpha" type="matrix" values="0 0 0 0 0 0 0 0 0 0 0 0 0 0 0 0 0 0 127 0" result="hardAlpha"/>
<feOffset dx="0.5" dy="0.1"/>
<feGaussianBlur stdDeviation="0.75"/>
<feColorMatrix type="matrix" values="0 0 0 0 0.258824 0 0 0 0 0.627451 0 0 0 0 0.941176 0 0 0 0.596 0"/>
<feBlend mode="normal" in2="BackgroundImageFix" result="effect1_dropShadow_1090_2470"/>
<feBlend mode="normal" in="SourceGraphic" in2="effect1_dropShadow_1090_2470" result="shape"/>
<feGaussianBlur stdDeviation="0.1" result="effect2_foregroundBlur_1090_2470"/>
</filter>
<filter id="filter4_d_1090_2470" x="0.83662" y="2.24999" width="19.5634" height="13.3" filterUnits="userSpaceOnUse" color-interpolation-filters="sRGB">
<feFlood flood-opacity="0" result="BackgroundImageFix"/>
<feColorMatrix in="SourceAlpha" type="matrix" values="0 0 0 0 0 0 0 0 0 0 0 0 0 0 0 0 0 0 127 0" result="hardAlpha"/>
<feOffset dx="0.5" dy="0.1"/>
<feGaussianBlur stdDeviation="0.75"/>
<feColorMatrix type="matrix" values="0 0 0 0 0.501961 0 0 0 0 0.501961 0 0 0 0 0.501961 0 0 0 0.302 0"/>
<feBlend mode="normal" in2="BackgroundImageFix" result="effect1_dropShadow_1090_2470"/>
<feBlend mode="normal" in="SourceGraphic" in2="effect1_dropShadow_1090_2470" result="shape"/>
</filter>
<linearGradient id="paint0_linear_1090_2470" x1="8.5448" y1="4.9478" x2="11.8469" y2="14.5084" gradientUnits="userSpaceOnUse">
<stop stop-color="white" stop-opacity="0.565"/>
<stop offset="1" stop-color="#F7F7F7" stop-opacity="0.204"/>
</linearGradient>
</defs>
</svg>
