<svg width="21" height="16" viewBox="0 0 21 16" fill="none" xmlns="http://www.w3.org/2000/svg">
<g filter="url(#filter0_f_1090_2482)">
<path d="M6.53888 11.9061C6.65343 11.9075 7.81433 13.7201 7.81433 14.4245C7.81433 14.7628 7.67995 15.0872 7.44076 15.3264C7.20156 15.5656 6.87715 15.7 6.53888 15.7C6.20061 15.7 5.87619 15.5656 5.637 15.3264C5.39781 15.0872 5.26343 14.7628 5.26343 14.4245C5.26343 13.7201 6.42443 11.9048 6.53888 11.9061Z" fill="#42A0F0"/>
<path d="M5.56638 14.9013C5.69383 14.9403 5.8558 14.78 5.92817 14.5433C6.00053 14.3066 5.95588 14.0831 5.82844 14.0442C5.70099 14.0052 5.53902 14.1655 5.46665 14.4022C5.39429 14.6389 5.43894 14.8624 5.56638 14.9013Z" fill="white"/>
<path d="M13.554 11.9061C13.6685 11.9075 14.8294 13.7201 14.8294 14.4245C14.8294 14.7628 14.6951 15.0872 14.4559 15.3264C14.2167 15.5656 13.8923 15.7 13.554 15.7C13.2157 15.7 12.8913 15.5656 12.6521 15.3264C12.4129 15.0872 12.2785 14.7628 12.2785 14.4245C12.2785 13.7201 13.4395 11.9048 13.554 11.9061Z" fill="#42A0F0"/>
<path d="M12.5815 14.9013C12.7089 14.9403 12.8709 14.78 12.9433 14.5433C13.0157 14.3066 12.971 14.0831 12.8436 14.0442C12.7161 14.0052 12.5541 14.1655 12.4818 14.4022C12.4094 14.6389 12.4541 14.8624 12.5815 14.9013Z" fill="white"/>
<path d="M9.78168 8.11473C9.89623 8.11618 11.0571 9.92873 11.0571 10.6332C11.0571 10.9715 10.9227 11.2959 10.6836 11.5351C10.4444 11.7743 10.1199 11.9086 9.78168 11.9086C9.44341 11.9086 9.11899 11.7743 8.8798 11.5351C8.6406 11.2959 8.50623 10.9715 8.50623 10.6332C8.50623 9.92873 9.66723 8.11348 9.78168 8.11473Z" fill="#42A0F0"/>
<path d="M8.80918 11.11C8.93662 11.1489 9.0986 10.9887 9.17096 10.752C9.24333 10.5153 9.19868 10.2918 9.07123 10.2528C8.94379 10.2139 8.78181 10.3742 8.70945 10.6109C8.63709 10.8476 8.68174 11.071 8.80918 11.11Z" fill="white"/>
</g>
<g filter="url(#filter1_df_1090_2482)">
<g filter="url(#filter2_d_1090_2482)">
<path d="M12.2781 12.2382C12.1815 12.246 12.0838 12.2499 11.9853 12.25H5.10907C4.63576 12.2518 4.16676 12.1601 3.72897 11.9802C3.29117 11.8002 2.89321 11.5357 2.5579 11.2016C2.22259 10.8676 1.95654 10.4706 1.775 10.0335C1.59346 9.59635 1.50002 9.12769 1.50002 8.65437C1.50002 8.18106 1.59346 7.7124 1.775 7.27528C1.95654 6.83816 2.22259 6.44119 2.5579 6.10713C2.89321 5.77307 3.29117 5.5085 3.72897 5.32859C4.16676 5.14868 4.63576 5.05698 5.10907 5.05875H7.67287C8.50407 3.23 10.4184 1.95 12.6471 1.95C15.6384 1.95 18.0634 4.25575 18.0634 7.1C18.0634 9.94425 15.6384 12.25 12.6471 12.25C12.5231 12.25 12.4001 12.2461 12.2781 12.2382Z" fill="url(#paint0_linear_1090_2482)"/>
<path d="M12.6471 12.2C13.0114 12.2 13.3754 12.1651 13.7291 12.0963C14.0738 12.0292 14.4128 11.9292 14.7367 11.7989C15.0547 11.671 15.3615 11.5127 15.6484 11.3284C15.9326 11.1459 16.1998 10.9362 16.4426 10.7054C16.6854 10.4745 16.9058 10.2205 17.0977 9.95044C17.2914 9.67782 17.4577 9.3864 17.5921 9.08427C17.729 8.77661 17.8341 8.45466 17.9045 8.12736C17.9768 7.79153 18.0135 7.44587 18.0135 7.09998C18.0135 6.75409 17.9768 6.40843 17.9045 6.07261C17.8341 5.74531 17.729 5.42336 17.5921 5.11571C17.4577 4.81358 17.2914 4.52216 17.0977 4.24955C16.9058 3.97946 16.6854 3.72547 16.4426 3.49464C16.1998 3.26376 15.9326 3.05414 15.6484 2.87161C15.3615 2.6873 15.0547 2.529 14.7367 2.4011C14.4128 2.27082 14.0738 2.17077 13.7291 2.10371C13.3754 2.03489 13.0114 2 12.6471 2C11.5785 2 10.5466 2.29761 9.66276 2.86067C9.23674 3.13208 8.85391 3.45969 8.52491 3.83439C8.19383 4.21145 7.92248 4.63034 7.71838 5.07942L7.70506 5.10873H7.67286H5.10908C4.6304 5.10873 4.16607 5.20247 3.72897 5.38735C3.51889 5.47621 3.31626 5.58619 3.12672 5.71424C2.93896 5.84109 2.7624 5.98677 2.60194 6.14723C2.44148 6.30769 2.2958 6.48425 2.16895 6.67201C2.0409 6.86155 1.93092 7.06418 1.84206 7.27426C1.65718 7.71136 1.56344 8.17569 1.56344 8.65437C1.56344 9.13304 1.65718 9.59738 1.84206 10.0345C1.93092 10.2446 2.0409 10.4472 2.16895 10.6367C2.2958 10.8245 2.44148 11.001 2.60194 11.1615C2.7624 11.322 2.93896 11.4676 3.12672 11.5945C3.31626 11.7225 3.51889 11.8325 3.72897 11.9214C4.16607 12.1063 4.6304 12.2 5.10908 12.2H11.9853C12.0814 12.2 12.1786 12.1961 12.2741 12.1884L12.2777 12.1881L12.2814 12.1883C12.4023 12.1961 12.5254 12.2 12.6471 12.2ZM12.6471 12.25C12.5231 12.25 12.4001 12.246 12.2782 12.2382C12.1816 12.246 12.0838 12.25 11.9853 12.25H5.10908C3.12327 12.25 1.51344 10.6402 1.51344 8.65437C1.51344 6.66856 3.12327 5.05873 5.10908 5.05873H7.67286C8.50409 3.22977 10.4183 1.95 12.6471 1.95C15.6384 1.95 18.0635 4.25575 18.0635 7.09998C18.0635 9.94425 15.6384 12.25 12.6471 12.25Z" fill="white" fill-opacity="0.5"/>
</g>
</g>
<defs>
<filter id="filter0_f_1090_2482" x="5.06343" y="7.91473" width="9.96601" height="7.98528" filterUnits="userSpaceOnUse" color-interpolation-filters="sRGB">
<feFlood flood-opacity="0" result="BackgroundImageFix"/>
<feBlend mode="normal" in="SourceGraphic" in2="BackgroundImageFix" result="shape"/>
<feGaussianBlur stdDeviation="0.1" result="effect1_foregroundBlur_1090_2482"/>
</filter>
<filter id="filter1_df_1090_2482" x="0.500015" y="0.549997" width="19.5634" height="13.3" filterUnits="userSpaceOnUse" color-interpolation-filters="sRGB">
<feFlood flood-opacity="0" result="BackgroundImageFix"/>
<feColorMatrix in="SourceAlpha" type="matrix" values="0 0 0 0 0 0 0 0 0 0 0 0 0 0 0 0 0 0 127 0" result="hardAlpha"/>
<feOffset dx="0.5" dy="0.1"/>
<feGaussianBlur stdDeviation="0.75"/>
<feColorMatrix type="matrix" values="0 0 0 0 0.258824 0 0 0 0 0.627451 0 0 0 0 0.941176 0 0 0 0.596 0"/>
<feBlend mode="normal" in2="BackgroundImageFix" result="effect1_dropShadow_1090_2482"/>
<feBlend mode="normal" in="SourceGraphic" in2="effect1_dropShadow_1090_2482" result="shape"/>
<feGaussianBlur stdDeviation="0.1" result="effect2_foregroundBlur_1090_2482"/>
</filter>
<filter id="filter2_d_1090_2482" x="0.500015" y="0.549997" width="19.5634" height="13.3" filterUnits="userSpaceOnUse" color-interpolation-filters="sRGB">
<feFlood flood-opacity="0" result="BackgroundImageFix"/>
<feColorMatrix in="SourceAlpha" type="matrix" values="0 0 0 0 0 0 0 0 0 0 0 0 0 0 0 0 0 0 127 0" result="hardAlpha"/>
<feOffset dx="0.5" dy="0.1"/>
<feGaussianBlur stdDeviation="0.75"/>
<feColorMatrix type="matrix" values="0 0 0 0 0.501961 0 0 0 0 0.501961 0 0 0 0 0.501961 0 0 0 0.302 0"/>
<feBlend mode="normal" in2="BackgroundImageFix" result="effect1_dropShadow_1090_2482"/>
<feBlend mode="normal" in="SourceGraphic" in2="effect1_dropShadow_1090_2482" result="shape"/>
</filter>
<linearGradient id="paint0_linear_1090_2482" x1="8.2082" y1="3.2478" x2="11.5103" y2="12.8084" gradientUnits="userSpaceOnUse">
<stop stop-color="white" stop-opacity="0.596"/>
<stop offset="1" stop-color="#F7F7F7" stop-opacity="0.204"/>
</linearGradient>
</defs>
</svg>
