<svg width="20" height="18" viewBox="0 0 20 18" fill="none" xmlns="http://www.w3.org/2000/svg">
<path d="M7.34327 8.06503V8.50743" stroke="#42A0F0" stroke-width="0.05" stroke-linecap="round"/>
<path d="M7.33366 8.17298L7.40561 8.13698" stroke="#42A0F0" stroke-width="0.05" stroke-linecap="round"/>
<path d="M7.33367 8.17298L7.22572 8.13698" stroke="#42A0F0" stroke-width="0.05" stroke-linecap="round"/>
<path d="M7.33366 8.42488L7.40561 8.46088" stroke="#42A0F0" stroke-width="0.05" stroke-linecap="round"/>
<path d="M7.33367 8.42488L7.22572 8.46088" stroke="#42A0F0" stroke-width="0.05" stroke-linecap="round"/>
<path d="M7.53374 8.17747L7.15061 8.39867" stroke="#42A0F0" stroke-width="0.05" stroke-linecap="round"/>
<path d="M7.43964 8.23078L7.54585 8.25744" stroke="#42A0F0" stroke-width="0.05" stroke-linecap="round"/>
<path d="M7.43963 8.23077L7.46842 8.12334" stroke="#42A0F0" stroke-width="0.05" stroke-linecap="round"/>
<path d="M7.23529 8.34874L7.20528 8.45406" stroke="#42A0F0" stroke-width="0.05" stroke-linecap="round"/>
<path d="M7.23529 8.34874L7.12786 8.31995" stroke="#42A0F0" stroke-width="0.05" stroke-linecap="round"/>
<path d="M7.53159 8.39868L7.14846 8.17748" stroke="#42A0F0" stroke-width="0.05" stroke-linecap="round"/>
<path d="M7.43836 8.34382L7.46838 8.44914" stroke="#42A0F0" stroke-width="0.05" stroke-linecap="round"/>
<path d="M7.43838 8.34382L7.54581 8.31503" stroke="#42A0F0" stroke-width="0.05" stroke-linecap="round"/>
<path d="M7.23402 8.22586L7.12781 8.25253" stroke="#42A0F0" stroke-width="0.05" stroke-linecap="round"/>
<path d="M7.23404 8.22586L7.20525 8.11842" stroke="#42A0F0" stroke-width="0.05" stroke-linecap="round"/>
<path d="M13.4468 9.04453V9.80293" stroke="#42A0F0" stroke-width="0.05" stroke-linecap="round"/>
<path d="M13.4152 9.21621L13.5591 9.18021" stroke="#42A0F0" stroke-width="0.05" stroke-linecap="round"/>
<path d="M13.4152 9.21621L13.2352 9.18021" stroke="#42A0F0" stroke-width="0.05" stroke-linecap="round"/>
<path d="M13.4152 9.64804L13.5591 9.71999" stroke="#42A0F0" stroke-width="0.05" stroke-linecap="round"/>
<path d="M13.4152 9.64804L13.2352 9.71999" stroke="#42A0F0" stroke-width="0.05" stroke-linecap="round"/>
<path d="M13.7733 9.23726L13.1165 9.61646" stroke="#42A0F0" stroke-width="0.05" stroke-linecap="round"/>
<path d="M13.612 9.32823L13.7941 9.37394" stroke="#42A0F0" stroke-width="0.05" stroke-linecap="round"/>
<path d="M13.612 9.32823L13.6614 9.14409" stroke="#42A0F0" stroke-width="0.05" stroke-linecap="round"/>
<path d="M13.2617 9.53084L13.2103 9.71134" stroke="#42A0F0" stroke-width="0.05" stroke-linecap="round"/>
<path d="M13.2617 9.53083L13.0776 9.48149" stroke="#42A0F0" stroke-width="0.05" stroke-linecap="round"/>
<path d="M13.7697 9.61647L13.1129 9.23727" stroke="#42A0F0" stroke-width="0.05" stroke-linecap="round"/>
<path d="M13.6099 9.52246L13.6614 9.70296" stroke="#42A0F0" stroke-width="0.05" stroke-linecap="round"/>
<path d="M13.6099 9.52245L13.7941 9.47311" stroke="#42A0F0" stroke-width="0.05" stroke-linecap="round"/>
<path d="M13.2596 9.32021L13.0776 9.36591" stroke="#42A0F0" stroke-width="0.05" stroke-linecap="round"/>
<path d="M13.2596 9.3202L13.2103 9.13606" stroke="#42A0F0" stroke-width="0.05" stroke-linecap="round"/>
<path d="M17.8795 10.2222V10.8449" stroke="#42A0F0" stroke-width="0.05" stroke-linecap="round"/>
<path d="M17.8473 10.358L17.9553 10.322" stroke="#42A0F0" stroke-width="0.05" stroke-linecap="round"/>
<path d="M17.8473 10.358L17.7034 10.322" stroke="#42A0F0" stroke-width="0.05" stroke-linecap="round"/>
<path d="M17.8473 10.7177L17.9553 10.7897" stroke="#42A0F0" stroke-width="0.05" stroke-linecap="round"/>
<path d="M17.8473 10.7177L17.7034 10.7897" stroke="#42A0F0" stroke-width="0.05" stroke-linecap="round"/>
<path d="M18.1477 10.38L17.6085 10.6914" stroke="#42A0F0" stroke-width="0.05" stroke-linecap="round"/>
<path d="M18.0153 10.4551L18.1648 10.4926" stroke="#42A0F0" stroke-width="0.05" stroke-linecap="round"/>
<path d="M18.0153 10.4551L18.0558 10.3038" stroke="#42A0F0" stroke-width="0.05" stroke-linecap="round"/>
<path d="M17.7277 10.6211L17.6855 10.7693" stroke="#42A0F0" stroke-width="0.05" stroke-linecap="round"/>
<path d="M17.7277 10.6211L17.5765 10.5806" stroke="#42A0F0" stroke-width="0.05" stroke-linecap="round"/>
<path d="M18.1447 10.6918L17.6055 10.3804" stroke="#42A0F0" stroke-width="0.05" stroke-linecap="round"/>
<path d="M18.0135 10.6142L18.0558 10.7624" stroke="#42A0F0" stroke-width="0.05" stroke-linecap="round"/>
<path d="M18.0135 10.6142L18.1647 10.5737" stroke="#42A0F0" stroke-width="0.05" stroke-linecap="round"/>
<path d="M17.7259 10.4486L17.5764 10.4861" stroke="#42A0F0" stroke-width="0.05" stroke-linecap="round"/>
<path d="M17.7259 10.4486L17.6854 10.2974" stroke="#42A0F0" stroke-width="0.05" stroke-linecap="round"/>
<path d="M2.56672 12.8616V13.4101" stroke="#42A0F0" stroke-width="0.05" stroke-linecap="round"/>
<path d="M2.53741 12.9977L2.64536 12.9617" stroke="#42A0F0" stroke-width="0.05" stroke-linecap="round"/>
<path d="M2.53742 12.9977L2.42947 12.9617" stroke="#42A0F0" stroke-width="0.05" stroke-linecap="round"/>
<path d="M2.53741 13.2855L2.64536 13.3575" stroke="#42A0F0" stroke-width="0.05" stroke-linecap="round"/>
<path d="M2.53742 13.2855L2.42947 13.3575" stroke="#42A0F0" stroke-width="0.05" stroke-linecap="round"/>
<path d="M2.80292 13.001L2.32795 13.2753" stroke="#42A0F0" stroke-width="0.05" stroke-linecap="round"/>
<path d="M2.68628 13.0671L2.81794 13.1002" stroke="#42A0F0" stroke-width="0.05" stroke-linecap="round"/>
<path d="M2.68627 13.0671L2.72196 12.9339" stroke="#42A0F0" stroke-width="0.05" stroke-linecap="round"/>
<path d="M2.43292 13.2134L2.39571 13.3439" stroke="#42A0F0" stroke-width="0.05" stroke-linecap="round"/>
<path d="M2.43291 13.2134L2.29973 13.1777" stroke="#42A0F0" stroke-width="0.05" stroke-linecap="round"/>
<path d="M2.80025 13.2752L2.32528 13.001" stroke="#42A0F0" stroke-width="0.05" stroke-linecap="round"/>
<path d="M2.68471 13.2072L2.72192 13.3378" stroke="#42A0F0" stroke-width="0.05" stroke-linecap="round"/>
<path d="M2.68472 13.2072L2.81791 13.1715" stroke="#42A0F0" stroke-width="0.05" stroke-linecap="round"/>
<path d="M2.43136 13.061L2.2997 13.094" stroke="#42A0F0" stroke-width="0.05" stroke-linecap="round"/>
<path d="M2.43136 13.061L2.39567 12.9278" stroke="#42A0F0" stroke-width="0.05" stroke-linecap="round"/>
<path d="M10.3472 14.9586V15.4034" stroke="#42A0F0" stroke-width="0.05" stroke-linecap="round"/>
<path d="M10.3363 15.0586L10.4083 15.0226" stroke="#42A0F0" stroke-width="0.05" stroke-linecap="round"/>
<path d="M10.3363 15.0586L10.2284 15.0226" stroke="#42A0F0" stroke-width="0.05" stroke-linecap="round"/>
<path d="M10.3363 15.3102L10.4083 15.3462" stroke="#42A0F0" stroke-width="0.05" stroke-linecap="round"/>
<path d="M10.3363 15.3102L10.2284 15.3462" stroke="#42A0F0" stroke-width="0.05" stroke-linecap="round"/>
<path d="M10.5387 15.0713L10.1535 15.2937" stroke="#42A0F0" stroke-width="0.05" stroke-linecap="round"/>
<path d="M10.4441 15.1249L10.5509 15.1517" stroke="#42A0F0" stroke-width="0.05" stroke-linecap="round"/>
<path d="M10.4441 15.1249L10.4731 15.0169" stroke="#42A0F0" stroke-width="0.05" stroke-linecap="round"/>
<path d="M10.2387 15.2436L10.2085 15.3494" stroke="#42A0F0" stroke-width="0.05" stroke-linecap="round"/>
<path d="M10.2387 15.2436L10.1306 15.2146" stroke="#42A0F0" stroke-width="0.05" stroke-linecap="round"/>
<path d="M10.5366 15.294L10.1513 15.0716" stroke="#42A0F0" stroke-width="0.05" stroke-linecap="round"/>
<path d="M10.4428 15.2386L10.473 15.3445" stroke="#42A0F0" stroke-width="0.05" stroke-linecap="round"/>
<path d="M10.4428 15.2389L10.5509 15.21" stroke="#42A0F0" stroke-width="0.05" stroke-linecap="round"/>
<path d="M10.2374 15.1203L10.1306 15.1471" stroke="#42A0F0" stroke-width="0.05" stroke-linecap="round"/>
<path d="M10.2374 15.1203L10.2084 15.0122" stroke="#42A0F0" stroke-width="0.05" stroke-linecap="round"/>
<g filter="url(#filter0_f_1090_2507)">
<path d="M14.4988 13.8002V17.6398" stroke="#42A0F0" stroke-width="0.3" stroke-linecap="round"/>
<path d="M14.4911 14.7388L15.1524 14.0562" stroke="#42A0F0" stroke-width="0.3" stroke-linecap="round"/>
<path d="M14.4911 14.7388L13.8085 14.0562" stroke="#42A0F0" stroke-width="0.3" stroke-linecap="round"/>
<path d="M14.4911 16.7866L15.1524 17.4692" stroke="#42A0F0" stroke-width="0.3" stroke-linecap="round"/>
<path d="M14.4911 16.7866L13.8085 17.4692" stroke="#42A0F0" stroke-width="0.3" stroke-linecap="round"/>
<path d="M16.1523 14.776L12.8271 16.6958" stroke="#42A0F0" stroke-width="0.3" stroke-linecap="round"/>
<path d="M15.3356 15.2386L16.2574 15.4699" stroke="#42A0F0" stroke-width="0.3" stroke-linecap="round"/>
<path d="M15.3356 15.2386L15.5854 14.3061" stroke="#42A0F0" stroke-width="0.3" stroke-linecap="round"/>
<path d="M13.5621 16.2625L13.3016 17.1764" stroke="#42A0F0" stroke-width="0.3" stroke-linecap="round"/>
<path d="M13.5621 16.2625L12.6297 16.0126" stroke="#42A0F0" stroke-width="0.3" stroke-linecap="round"/>
<path d="M16.1339 16.6958L12.8087 14.776" stroke="#42A0F0" stroke-width="0.3" stroke-linecap="round"/>
<path d="M15.325 16.2195L15.5855 17.1335" stroke="#42A0F0" stroke-width="0.3" stroke-linecap="round"/>
<path d="M15.325 16.2195L16.2575 15.9697" stroke="#42A0F0" stroke-width="0.3" stroke-linecap="round"/>
<path d="M13.5515 15.1959L12.6297 15.4273" stroke="#42A0F0" stroke-width="0.3" stroke-linecap="round"/>
<path d="M13.5515 15.1959L13.3016 14.2635" stroke="#42A0F0" stroke-width="0.3" stroke-linecap="round"/>
<path d="M10.1488 9.3997V13.2393" stroke="#42A0F0" stroke-width="0.3" stroke-linecap="round"/>
<path d="M10.1411 10.3383L10.8024 9.65565" stroke="#42A0F0" stroke-width="0.3" stroke-linecap="round"/>
<path d="M10.1411 10.3383L9.45853 9.65565" stroke="#42A0F0" stroke-width="0.3" stroke-linecap="round"/>
<path d="M10.1411 12.386L10.8024 13.0686" stroke="#42A0F0" stroke-width="0.3" stroke-linecap="round"/>
<path d="M10.1411 12.386L9.45853 13.0686" stroke="#42A0F0" stroke-width="0.3" stroke-linecap="round"/>
<path d="M11.8022 10.376L8.47705 12.2958" stroke="#42A0F0" stroke-width="0.3" stroke-linecap="round"/>
<path d="M10.9856 10.8386L11.9074 11.0699" stroke="#42A0F0" stroke-width="0.3" stroke-linecap="round"/>
<path d="M10.9856 10.8386L11.2354 9.90611" stroke="#42A0F0" stroke-width="0.3" stroke-linecap="round"/>
<path d="M9.21213 11.8624L8.9516 12.7764" stroke="#42A0F0" stroke-width="0.3" stroke-linecap="round"/>
<path d="M9.21213 11.8625L8.27969 11.6126" stroke="#42A0F0" stroke-width="0.3" stroke-linecap="round"/>
<path d="M11.7839 12.2954L8.45873 10.3756" stroke="#42A0F0" stroke-width="0.3" stroke-linecap="round"/>
<path d="M10.975 11.8195L11.2355 12.7334" stroke="#42A0F0" stroke-width="0.3" stroke-linecap="round"/>
<path d="M10.975 11.8195L11.9074 11.5696" stroke="#42A0F0" stroke-width="0.3" stroke-linecap="round"/>
<path d="M9.20152 10.7956L8.27974 11.027" stroke="#42A0F0" stroke-width="0.3" stroke-linecap="round"/>
<path d="M9.20152 10.7956L8.95167 9.86314" stroke="#42A0F0" stroke-width="0.3" stroke-linecap="round"/>
<path d="M6.69883 13.8002V17.6398" stroke="#42A0F0" stroke-width="0.3" stroke-linecap="round"/>
<path d="M6.69114 14.7388L7.35239 14.0562" stroke="#42A0F0" stroke-width="0.3" stroke-linecap="round"/>
<path d="M6.69114 14.7388L6.00854 14.0562" stroke="#42A0F0" stroke-width="0.3" stroke-linecap="round"/>
<path d="M6.69114 16.7866L7.35239 17.4692" stroke="#42A0F0" stroke-width="0.3" stroke-linecap="round"/>
<path d="M6.69114 16.7866L6.00854 17.4692" stroke="#42A0F0" stroke-width="0.3" stroke-linecap="round"/>
<path d="M8.35224 14.776L5.02705 16.6958" stroke="#42A0F0" stroke-width="0.3" stroke-linecap="round"/>
<path d="M7.53558 15.2386L8.45736 15.4699" stroke="#42A0F0" stroke-width="0.3" stroke-linecap="round"/>
<path d="M7.53558 15.2386L7.78543 14.3061" stroke="#42A0F0" stroke-width="0.3" stroke-linecap="round"/>
<path d="M5.76213 16.2625L5.50161 17.1764" stroke="#42A0F0" stroke-width="0.3" stroke-linecap="round"/>
<path d="M5.76214 16.2625L4.82969 16.0126" stroke="#42A0F0" stroke-width="0.3" stroke-linecap="round"/>
<path d="M8.33376 16.696L5.00857 14.7762" stroke="#42A0F0" stroke-width="0.3" stroke-linecap="round"/>
<path d="M7.52481 16.2198L7.78533 17.1337" stroke="#42A0F0" stroke-width="0.3" stroke-linecap="round"/>
<path d="M7.5248 16.2198L8.45725 15.9699" stroke="#42A0F0" stroke-width="0.3" stroke-linecap="round"/>
<path d="M5.75136 15.1962L4.82958 15.4275" stroke="#42A0F0" stroke-width="0.3" stroke-linecap="round"/>
<path d="M5.75136 15.1962L5.50151 14.2637" stroke="#42A0F0" stroke-width="0.3" stroke-linecap="round"/>
</g>
<g filter="url(#filter1_df_1090_2507)">
<g filter="url(#filter2_d_1090_2507)">
<path d="M12.1781 12.3383C12.0815 12.346 11.9838 12.3499 11.8853 12.35H5.00908C4.53577 12.3518 4.06677 12.2601 3.62897 12.0802C3.19118 11.9003 2.79322 11.6357 2.45791 11.3016C2.1226 10.9676 1.85655 10.5706 1.67501 10.1335C1.49347 9.69635 1.40002 9.22769 1.40002 8.75438C1.40002 8.28106 1.49347 7.8124 1.67501 7.37529C1.85655 6.93817 2.1226 6.54119 2.45791 6.20713C2.79322 5.87307 3.19118 5.6085 3.62897 5.4286C4.06677 5.24869 4.53577 5.15699 5.00908 5.15875H7.57288C8.40408 3.33 10.3184 2.05 12.5471 2.05C15.5384 2.05 17.9634 4.35575 17.9634 7.2C17.9634 10.0443 15.5384 12.35 12.5471 12.35C12.4231 12.35 12.3001 12.3461 12.1781 12.3383Z" fill="url(#paint0_linear_1090_2507)"/>
<path d="M12.5471 12.3C12.9114 12.3 13.2754 12.2651 13.6291 12.1963C13.9738 12.1292 14.3128 12.0292 14.6367 11.8989C14.9547 11.771 15.2615 11.6127 15.5484 11.4284C15.8325 11.2459 16.0997 11.0362 16.3426 10.8054C16.5853 10.5745 16.8057 10.3205 16.9977 10.0504C17.1914 9.77783 17.3577 9.48641 17.4921 9.18428C17.629 8.87662 17.7341 8.55467 17.8045 8.22737C17.8768 7.89154 17.9134 7.54587 17.9134 7.19998C17.9134 6.8541 17.8768 6.50844 17.8045 6.17261C17.7341 5.84532 17.629 5.52337 17.4921 5.21571C17.3577 4.91358 17.1914 4.62217 16.9977 4.34955C16.8057 4.07947 16.5853 3.82548 16.3426 3.59464C16.0997 3.36376 15.8325 3.15415 15.5484 2.97162C15.2615 2.78731 14.9547 2.62901 14.6367 2.50111C14.3128 2.37083 13.9738 2.27077 13.6291 2.20371C13.2754 2.1349 12.9114 2.1 12.5471 2.1C11.4785 2.1 10.4466 2.39762 9.56276 2.96068C9.13673 3.23209 8.7539 3.5597 8.4249 3.93439C8.09383 4.31146 7.82247 4.73035 7.61837 5.17943L7.60505 5.20874H7.57285H5.00907C4.53039 5.20874 4.06606 5.30248 3.62897 5.48735C3.41889 5.57621 3.21626 5.68619 3.02671 5.81425C2.83895 5.9411 2.66239 6.08677 2.50193 6.24723C2.34147 6.40769 2.1958 6.58425 2.06895 6.77201C1.94089 6.96156 1.83091 7.16419 1.74205 7.37427C1.55718 7.81136 1.46344 8.27569 1.46344 8.75437C1.46344 9.23305 1.55718 9.69738 1.74205 10.1345C1.83091 10.3446 1.94089 10.5472 2.06895 10.7367C2.1958 10.9245 2.34147 11.1011 2.50193 11.2615C2.66239 11.422 2.83895 11.5676 3.02671 11.6945C3.21626 11.8226 3.41889 11.9325 3.62897 12.0214C4.06606 12.2063 4.53039 12.3 5.00907 12.3H11.8853C11.9814 12.3 12.0786 12.2961 12.1741 12.2884L12.1777 12.2881L12.1813 12.2884C12.3023 12.2961 12.4254 12.3 12.5471 12.3ZM12.5471 12.35C12.4231 12.35 12.3001 12.346 12.1782 12.3382C12.0816 12.346 11.9838 12.35 11.8853 12.35H5.00907C3.02327 12.35 1.41344 10.7402 1.41344 8.75437C1.41344 6.76857 3.02327 5.15874 5.00907 5.15874H7.57285C8.40408 3.32977 10.3183 2.05 12.5471 2.05C15.5384 2.05 17.9634 4.35576 17.9634 7.19998C17.9634 10.0443 15.5384 12.35 12.5471 12.35Z" fill="white" fill-opacity="0.5"/>
</g>
</g>
<defs>
<filter id="filter0_f_1090_2507" x="4.47955" y="9.04971" width="12.128" height="8.94008" filterUnits="userSpaceOnUse" color-interpolation-filters="sRGB">
<feFlood flood-opacity="0" result="BackgroundImageFix"/>
<feBlend mode="normal" in="SourceGraphic" in2="BackgroundImageFix" result="shape"/>
<feGaussianBlur stdDeviation="0.1" result="effect1_foregroundBlur_1090_2507"/>
</filter>
<filter id="filter1_df_1090_2507" x="0.400024" y="0.650003" width="19.5634" height="13.3" filterUnits="userSpaceOnUse" color-interpolation-filters="sRGB">
<feFlood flood-opacity="0" result="BackgroundImageFix"/>
<feColorMatrix in="SourceAlpha" type="matrix" values="0 0 0 0 0 0 0 0 0 0 0 0 0 0 0 0 0 0 127 0" result="hardAlpha"/>
<feOffset dx="0.5" dy="0.1"/>
<feGaussianBlur stdDeviation="0.75"/>
<feColorMatrix type="matrix" values="0 0 0 0 0.258824 0 0 0 0 0.627451 0 0 0 0 0.941176 0 0 0 0.596 0"/>
<feBlend mode="normal" in2="BackgroundImageFix" result="effect1_dropShadow_1090_2507"/>
<feBlend mode="normal" in="SourceGraphic" in2="effect1_dropShadow_1090_2507" result="shape"/>
<feGaussianBlur stdDeviation="0.1" result="effect2_foregroundBlur_1090_2507"/>
</filter>
<filter id="filter2_d_1090_2507" x="0.400024" y="0.650003" width="19.5634" height="13.3" filterUnits="userSpaceOnUse" color-interpolation-filters="sRGB">
<feFlood flood-opacity="0" result="BackgroundImageFix"/>
<feColorMatrix in="SourceAlpha" type="matrix" values="0 0 0 0 0 0 0 0 0 0 0 0 0 0 0 0 0 0 127 0" result="hardAlpha"/>
<feOffset dx="0.5" dy="0.1"/>
<feGaussianBlur stdDeviation="0.75"/>
<feColorMatrix type="matrix" values="0 0 0 0 0.501961 0 0 0 0 0.501961 0 0 0 0 0.501961 0 0 0 0.302 0"/>
<feBlend mode="normal" in2="BackgroundImageFix" result="effect1_dropShadow_1090_2507"/>
<feBlend mode="normal" in="SourceGraphic" in2="effect1_dropShadow_1090_2507" result="shape"/>
</filter>
<linearGradient id="paint0_linear_1090_2507" x1="8.1082" y1="3.34781" x2="11.4103" y2="12.9084" gradientUnits="userSpaceOnUse">
<stop stop-color="white" stop-opacity="0.596"/>
<stop offset="1" stop-color="#F7F7F7" stop-opacity="0.204"/>
</linearGradient>
</defs>
</svg>
