<svg width="170.000000" height="172.000000" viewBox="0 0 170 172" fill="none" xmlns="http://www.w3.org/2000/svg" xmlns:xlink="http://www.w3.org/1999/xlink">
	<desc>
			Created with Pixso.
	</desc>
	<defs/>
	<path id="Vector" d="M85 0C86.69 0 88.31 0.67 89.5 1.88C90.7 3.09 91.37 4.73 91.37 6.45L91.37 19.35C91.37 21.06 90.7 22.7 89.5 23.91C88.31 25.12 86.69 25.8 85 25.8C83.3 25.8 81.68 25.12 80.49 23.91C79.29 22.7 78.62 21.06 78.62 19.35L78.62 6.45C78.62 4.73 79.29 3.09 80.49 1.88C81.68 0.67 83.3 0 85 0ZM85 129C96.27 129 107.08 124.47 115.05 116.4C123.02 108.34 127.5 97.4 127.5 86C127.5 74.59 123.02 63.65 115.05 55.59C107.08 47.53 96.27 43 85 43C73.72 43 62.91 47.53 54.94 55.59C46.97 63.65 42.5 74.59 42.5 86C42.5 97.4 46.97 108.34 54.94 116.4C62.91 124.47 73.72 129 85 129ZM85 116.1C81.09 116.1 77.22 115.32 73.61 113.8C70 112.29 66.72 110.07 63.96 107.28C61.2 104.48 59 101.17 57.51 97.51C56.01 93.86 55.25 89.95 55.25 86C55.25 82.04 56.01 78.13 57.51 74.48C59 70.82 61.2 67.51 63.96 64.71C66.72 61.92 70 59.7 73.61 58.19C77.22 56.67 81.09 55.9 85 55.9C92.89 55.9 100.45 59.07 106.03 64.71C111.61 70.36 114.75 78.01 114.75 86C114.75 93.98 111.61 101.63 106.03 107.28C100.45 112.92 92.89 116.1 85 116.1ZM163.62 92.45C165.31 92.45 166.93 91.77 168.13 90.56C169.32 89.35 170 87.71 170 86C170 84.28 169.32 82.64 168.13 81.43C166.93 80.22 165.31 79.55 163.62 79.55L150.87 79.55C149.18 79.55 147.56 80.22 146.36 81.43C145.17 82.64 144.5 84.28 144.5 86C144.5 87.71 145.17 89.35 146.36 90.56C147.56 91.77 149.18 92.45 150.87 92.45L163.62 92.45ZM85 146.2C86.69 146.2 88.31 146.88 89.5 148.08C90.7 149.29 91.37 150.93 91.37 152.64L91.37 165.55C91.37 167.26 90.7 168.9 89.5 170.11C88.31 171.32 86.69 172 85 172C83.3 172 81.68 171.32 80.49 170.11C79.29 168.9 78.62 167.26 78.62 165.55L78.62 152.64C78.62 150.93 79.29 149.29 80.49 148.08C81.68 146.88 83.3 146.2 85 146.2ZM19.12 92.45C20.81 92.45 22.43 91.77 23.63 90.56C24.82 89.35 25.5 87.71 25.5 86C25.5 84.28 24.82 82.64 23.63 81.43C22.43 80.22 20.81 79.55 19.12 79.55L6.37 79.55C4.68 79.55 3.06 80.22 1.86 81.43C0.67 82.64 0 84.28 0 86C0 87.71 0.67 89.35 1.86 90.56C3.06 91.77 4.68 92.45 6.37 92.45L19.12 92.45ZM18.87 19.09C20.06 17.88 21.68 17.2 23.37 17.2C25.06 17.2 26.68 17.88 27.88 19.09L40.63 31.99C41.75 33.21 42.36 34.83 42.34 36.5C42.31 38.17 41.64 39.76 40.47 40.95C39.3 42.13 37.73 42.8 36.07 42.83C34.42 42.86 32.82 42.24 31.62 41.1L18.87 28.2C17.67 26.99 17 25.35 17 23.65C17 21.94 17.67 20.3 18.87 19.09ZM27.88 152.9C27.29 153.54 26.59 154.05 25.81 154.4C25.02 154.75 24.18 154.94 23.32 154.96C22.47 154.97 21.62 154.81 20.82 154.49C20.03 154.16 19.31 153.68 18.7 153.07C18.1 152.45 17.62 151.73 17.3 150.92C16.98 150.12 16.82 149.26 16.84 148.39C16.85 147.53 17.04 146.67 17.39 145.88C17.74 145.09 18.24 144.38 18.87 143.79L31.62 130.89C32.2 130.25 32.9 129.75 33.68 129.39C34.47 129.04 35.31 128.85 36.17 128.84C37.02 128.82 37.87 128.98 38.67 129.3C39.46 129.63 40.18 130.11 40.79 130.72C41.39 131.34 41.87 132.07 42.19 132.87C42.51 133.67 42.67 134.53 42.65 135.4C42.64 136.26 42.45 137.12 42.1 137.91C41.75 138.7 41.25 139.41 40.63 140L27.88 152.9ZM151.13 19.09C149.93 17.88 148.31 17.2 146.62 17.2C144.93 17.2 143.31 17.88 142.12 19.09L129.37 31.99C128.24 33.21 127.63 34.83 127.66 36.5C127.68 38.17 128.35 39.76 129.52 40.95C130.69 42.13 132.27 42.8 133.92 42.83C135.57 42.86 137.17 42.24 138.38 41.1L151.13 28.2C152.32 26.99 152.99 25.35 152.99 23.65C152.99 21.94 152.32 20.3 151.13 19.09ZM142.12 152.9C142.7 153.54 143.4 154.05 144.18 154.4C144.97 154.75 145.81 154.94 146.67 154.96C147.52 154.97 148.37 154.81 149.17 154.49C149.96 154.16 150.68 153.68 151.29 153.07C151.89 152.45 152.37 151.73 152.69 150.92C153.01 150.12 153.17 149.26 153.15 148.39C153.14 147.53 152.95 146.67 152.6 145.88C152.25 145.09 151.75 144.38 151.13 143.79L138.38 130.89C137.79 130.25 137.09 129.75 136.31 129.39C135.52 129.04 134.68 128.85 133.82 128.84C132.97 128.82 132.12 128.98 131.32 129.3C130.53 129.63 129.81 130.11 129.2 130.72C128.6 131.34 128.12 132.07 127.8 132.87C127.48 133.67 127.32 134.53 127.34 135.4C127.35 136.26 127.54 137.12 127.89 137.91C128.24 138.7 128.74 139.41 129.37 140L142.12 152.9Z" fill="#FFFFFF" fill-opacity="1.000000" fill-rule="nonzero"/>
</svg>
