<svg width="21" height="18" viewBox="0 0 21 18" fill="none" xmlns="http://www.w3.org/2000/svg">
<g filter="url(#filter0_f_1090_2888)">
<path d="M7.42135 8.59013H11.0095L8.9468 11.6192L11.3585 11.6648L6.2964 17.6563L7.52295 13.0883H5.2775L7.42135 8.59013Z" fill="url(#paint0_linear_1090_2888)"/>
<path d="M12.9657 11.7782H14.541L13.6354 13.1082L14.6943 13.1282L12.4717 15.7588L13.0103 13.7532H12.0244L12.9657 11.7782Z" fill="url(#paint1_linear_1090_2888)"/>
</g>
<g filter="url(#filter1_df_1090_2888)">
<g filter="url(#filter2_d_1090_2888)">
<path d="M12.4781 12.3383C12.3815 12.346 12.2838 12.3499 12.1853 12.35H5.30907C4.83576 12.3518 4.36675 12.2601 3.92896 12.0802C3.49117 11.9003 3.09321 11.6357 2.7579 11.3016C2.42259 10.9676 2.15654 10.5706 1.975 10.1335C1.79346 9.69635 1.70001 9.22769 1.70001 8.75438C1.70001 8.28106 1.79346 7.8124 1.975 7.37529C2.15654 6.93817 2.42259 6.54119 2.7579 6.20713C3.09321 5.87307 3.49117 5.6085 3.92896 5.4286C4.36675 5.24869 4.83576 5.15699 5.30907 5.15875H7.87287C8.70407 3.33 10.6184 2.05 12.8471 2.05C15.8384 2.05 18.2634 4.35575 18.2634 7.2C18.2634 10.0443 15.8384 12.35 12.8471 12.35C12.7231 12.35 12.6001 12.3461 12.4781 12.3383Z" fill="url(#paint2_linear_1090_2888)"/>
<path d="M12.8471 12.3C13.2113 12.3 13.5754 12.2651 13.9291 12.1963C14.2737 12.1292 14.6128 12.0292 14.9367 11.8989C15.2547 11.771 15.5615 11.6127 15.8484 11.4284C16.1325 11.2459 16.3997 11.0362 16.6426 10.8054C16.8853 10.5745 17.1057 10.3205 17.2976 10.0504C17.4913 9.77783 17.6577 9.48641 17.7921 9.18428C17.929 8.87662 18.0341 8.55467 18.1045 8.22737C18.1768 7.89154 18.2134 7.54587 18.2134 7.19998C18.2134 6.8541 18.1768 6.50844 18.1045 6.17261C18.0341 5.84532 17.929 5.52337 17.7921 5.21571C17.6577 4.91358 17.4913 4.62217 17.2976 4.34955C17.1057 4.07947 16.8853 3.82548 16.6426 3.59464C16.3997 3.36376 16.1325 3.15415 15.8484 2.97162C15.5615 2.78731 15.2547 2.62901 14.9367 2.50111C14.6128 2.37083 14.2737 2.27077 13.9291 2.20371C13.5754 2.1349 13.2113 2.1 12.8471 2.1C11.7785 2.1 10.7466 2.39762 9.86275 2.96068C9.43672 3.23209 9.05389 3.5597 8.72489 3.93439C8.39381 4.31146 8.12246 4.73035 7.91836 5.17943L7.90504 5.20874H7.87284H5.30906C4.83038 5.20874 4.36605 5.30248 3.92896 5.48735C3.71887 5.57621 3.51625 5.68619 3.3267 5.81425C3.13894 5.9411 2.96238 6.08677 2.80192 6.24723C2.64146 6.40769 2.49578 6.58425 2.36894 6.77201C2.24088 6.96156 2.1309 7.16419 2.04204 7.37427C1.85716 7.81136 1.76342 8.27569 1.76342 8.75437C1.76342 9.23305 1.85716 9.69738 2.04204 10.1345C2.1309 10.3446 2.24088 10.5472 2.36894 10.7367C2.49578 10.9245 2.64146 11.1011 2.80192 11.2615C2.96238 11.422 3.13894 11.5676 3.3267 11.6945C3.51625 11.8226 3.71887 11.9325 3.92896 12.0214C4.36605 12.2063 4.83038 12.3 5.30906 12.3H12.1853C12.2814 12.3 12.3786 12.2961 12.4741 12.2884L12.4777 12.2881L12.4813 12.2884C12.6023 12.2961 12.7253 12.3 12.8471 12.3ZM12.8471 12.35C12.7231 12.35 12.6 12.346 12.4781 12.3382C12.3816 12.346 12.2838 12.35 12.1853 12.35H5.30906C3.32325 12.35 1.71342 10.7402 1.71342 8.75437C1.71342 6.76857 3.32325 5.15874 5.30906 5.15874H7.87284C8.70407 3.32977 10.6183 2.05 12.8471 2.05C15.8384 2.05 18.2634 4.35576 18.2634 7.19998C18.2634 10.0443 15.8384 12.35 12.8471 12.35Z" fill="white" fill-opacity="0.5"/>
</g>
</g>
<defs>
<filter id="filter0_f_1090_2888" x="5.0775" y="8.39013" width="9.81681" height="9.46615" filterUnits="userSpaceOnUse" color-interpolation-filters="sRGB">
<feFlood flood-opacity="0" result="BackgroundImageFix"/>
<feBlend mode="normal" in="SourceGraphic" in2="BackgroundImageFix" result="shape"/>
<feGaussianBlur stdDeviation="0.1" result="effect1_foregroundBlur_1090_2888"/>
</filter>
<filter id="filter1_df_1090_2888" x="0.700012" y="0.650003" width="19.5634" height="13.3" filterUnits="userSpaceOnUse" color-interpolation-filters="sRGB">
<feFlood flood-opacity="0" result="BackgroundImageFix"/>
<feColorMatrix in="SourceAlpha" type="matrix" values="0 0 0 0 0 0 0 0 0 0 0 0 0 0 0 0 0 0 127 0" result="hardAlpha"/>
<feOffset dx="0.5" dy="0.1"/>
<feGaussianBlur stdDeviation="0.75"/>
<feColorMatrix type="matrix" values="0 0 0 0 0.258824 0 0 0 0 0.627451 0 0 0 0 0.941176 0 0 0 0.596 0"/>
<feBlend mode="normal" in2="BackgroundImageFix" result="effect1_dropShadow_1090_2888"/>
<feBlend mode="normal" in="SourceGraphic" in2="effect1_dropShadow_1090_2888" result="shape"/>
<feGaussianBlur stdDeviation="0.1" result="effect2_foregroundBlur_1090_2888"/>
</filter>
<filter id="filter2_d_1090_2888" x="0.700012" y="0.650003" width="19.5634" height="13.3" filterUnits="userSpaceOnUse" color-interpolation-filters="sRGB">
<feFlood flood-opacity="0" result="BackgroundImageFix"/>
<feColorMatrix in="SourceAlpha" type="matrix" values="0 0 0 0 0 0 0 0 0 0 0 0 0 0 0 0 0 0 127 0" result="hardAlpha"/>
<feOffset dx="0.5" dy="0.1"/>
<feGaussianBlur stdDeviation="0.75"/>
<feColorMatrix type="matrix" values="0 0 0 0 0.501961 0 0 0 0 0.501961 0 0 0 0 0.501961 0 0 0 0.302 0"/>
<feBlend mode="normal" in2="BackgroundImageFix" result="effect1_dropShadow_1090_2888"/>
<feBlend mode="normal" in="SourceGraphic" in2="effect1_dropShadow_1090_2888" result="shape"/>
</filter>
<linearGradient id="paint0_linear_1090_2888" x1="7.75856" y1="13.1232" x2="4.91807" y2="12.0819" gradientUnits="userSpaceOnUse">
<stop stop-color="#FFD100"/>
<stop offset="1" stop-color="#FFF0AA"/>
</linearGradient>
<linearGradient id="paint1_linear_1090_2888" x1="13.1137" y1="13.7685" x2="11.8666" y2="13.3113" gradientUnits="userSpaceOnUse">
<stop stop-color="#FFD100"/>
<stop offset="1" stop-color="#FFF0AA"/>
</linearGradient>
<linearGradient id="paint2_linear_1090_2888" x1="8.40819" y1="3.34781" x2="11.7103" y2="12.9084" gradientUnits="userSpaceOnUse">
<stop stop-color="white" stop-opacity="0.596"/>
<stop offset="1" stop-color="#F7F7F7" stop-opacity="0.204"/>
</linearGradient>
</defs>
</svg>
